# Blender v2.93.1 OBJ File: ''
# www.blender.org
mtllib tree.mtl
o Cube_Cube.003
v -2.915297 0.504321 2.851984
v -2.915297 0.504321 -3.170485
v 3.068918 0.504321 2.851984
v 3.068918 0.504321 -3.170485
v 1.789282 -1.189772 -3.177544
v 1.796500 -1.195834 2.851984
v -2.897063 -1.159389 -3.170485
v -2.924293 -1.158368 2.851984
v -2.305535 0.504321 2.851984
v 3.068918 -1.240205 -3.170485
v 3.068918 -1.220136 2.851984
v -1.035478 -1.191971 -3.177544
v -1.038128 -1.211238 2.851984
v -2.324064 1.245336 2.351604
v -2.324064 1.245336 -2.553358
v 2.329486 1.245336 -2.553358
v 2.329485 1.245336 2.323329
v 2.357807 0.520748 2.311967
v 2.347886 0.529083 -2.546111
v -2.285445 0.495520 -2.584372
v -2.261456 0.518612 2.323437
vt 0.625000 0.500000
vt 0.679640 0.552071
vt 0.678763 0.699301
vt 0.625000 0.750000
vt 0.611537 0.250000
vt 0.611034 0.000000
vt 0.623164 0.000000
vt 0.623125 0.250000
vt 0.623164 1.000000
vt 0.625000 0.972715
vt 0.625000 1.000000
vt 0.625000 0.000000
vt 0.625000 0.250000
vt 0.610219 0.750000
vt 0.609463 0.500000
vt 0.602279 0.750000
vt 0.601820 0.500000
vt 0.611034 1.000000
vt 0.875000 0.500000
vt 0.829881 0.549112
vt 0.796336 0.585627
vt 0.796056 0.666610
vt 0.714674 0.665437
vt 0.714851 0.585627
vt 0.827844 0.700188
vt 0.875000 0.750000
vt 0.847715 0.750000
vn 0.0288 0.9996 0.0007
vn -0.0072 -1.0000 -0.0004
vn 0.0000 0.0000 1.0000
vn -1.0000 -0.0028 -0.0023
vn 1.0000 0.0000 0.0000
vn -0.0070 -1.0000 0.0001
vn 0.0000 0.0011 -1.0000
vn -0.0031 0.9999 -0.0134
vn 0.0000 1.0000 -0.0000
vn -0.0002 0.9996 0.0287
vn -0.0042 1.0000 -0.0021
vn 0.0043 -0.0270 0.9996
vn -0.9976 -0.0685 0.0026
vn 0.0041 0.0164 -0.9999
vn 0.9995 0.0324 -0.0010
usemtl Material.002
s off
f 4/1/1 19/2/1 18/3/1 3/4/1
f 5/5/2 6/6/2 8/7/2 7/8/2
f 8/9/3 9/10/3 1/11/3
f 7/8/4 8/7/4 1/12/4 2/13/4
f 11/14/5 10/15/5 4/1/5 3/4/5
f 13/16/6 12/17/6 10/15/6 11/14/6
f 12/17/7 5/5/7 7/8/7 2/13/7 4/1/7 10/15/7
f 6/18/3 13/16/3 11/14/3 3/4/3 9/10/3 8/9/3
f 2/19/8 20/20/8 19/2/8 4/1/8
f 15/21/9 14/22/9 17/23/9 16/24/9
f 3/4/10 18/3/10 21/25/10 1/26/10 9/27/10
f 1/26/11 21/25/11 20/20/11 2/19/11
f 21/25/12 18/3/12 17/23/12 14/22/12
f 20/20/13 21/25/13 14/22/13 15/21/13
f 19/2/14 20/20/14 15/21/14 16/24/14
f 18/3/15 19/2/15 16/24/15 17/23/15
